<svg width="30" height="26" viewBox="0 0 30 26" fill="none" xmlns="http://www.w3.org/2000/svg">
<path d="M22.4118 17.9655V14.2414H25C27.2091 14.2414 29 12.4505 29 10.2414V4.89655C29 4.34427 28.5523 3.89655 28 3.89655H19.1176M22.4118 17.9655C25.2809 17.8903 27.2191 18.3058 29 16.7241V24C29 24.5523 28.5523 25 28 25H2C1.44771 25 1 24.5523 1 24V16.7241C2.06167 17.791 4.11177 17.9593 8 17.9698M22.4118 17.9655H21.5882M19.9412 14.2414H10.0588V17.9655H19.9412M8 14.2414H5C2.79086 14.2414 1 12.4505 1 10.2414V4.89655C1 4.34427 1.44772 3.89655 2 3.89655H10.8824M10.8824 3.89655V3C10.8824 1.89543 11.7778 1 12.8824 1H17.1176C18.2222 1 19.1176 1.89543 19.1176 3V3.89655M10.8824 3.89655H19.1176" stroke="#212121" stroke-width="2"/>
</svg>
