<svg width="42" height="33" viewBox="0 0 42 33" fill="none" xmlns="http://www.w3.org/2000/svg">
<path d="M12.8171 3.53718C13.3832 2.69933 14.6168 2.69933 15.1829 3.53718C16.0628 4.8395 17.7156 5.37655 19.1929 4.84011C20.1433 4.49499 21.1414 5.22014 21.1069 6.23069C21.0532 7.80146 22.0747 9.20746 23.5852 9.64181C24.557 9.92125 24.9382 11.0946 24.3163 11.8918C23.3496 13.131 23.3496 14.869 24.3163 16.1082C24.9382 16.9054 24.557 18.0788 23.5852 18.3582C22.0747 18.7925 21.0532 20.1985 21.1069 21.7693C21.1414 22.7799 20.1433 23.505 19.1929 23.1599C17.7156 22.6235 16.0628 23.1605 15.1829 24.4628C14.6168 25.3007 13.3832 25.3007 12.8171 24.4628C11.9372 23.1605 10.2844 22.6235 8.8071 23.1599C7.85667 23.505 6.85859 22.7799 6.89312 21.7693C6.94679 20.1985 5.92528 18.7925 4.4148 18.3582C3.44304 18.0788 3.06181 16.9054 3.68373 16.1082C4.65042 14.869 4.65042 13.131 3.68373 11.8918C3.06181 11.0946 3.44304 9.92125 4.4148 9.64181L4.14939 8.71882L4.4148 9.64181C5.92527 9.20746 6.94679 7.80146 6.89312 6.23069C6.85859 5.22014 7.85667 4.49499 8.8071 4.84011C10.2844 5.37655 11.9372 4.8395 12.8171 3.53718Z" stroke="#212121" stroke-width="2"/>
<circle cx="14" cy="14" r="4" stroke="#212121" stroke-width="2"/>
<path d="M32.0679 29.9709L31.3326 30.6487L32.0679 29.9709L31.8412 29.725C31.2975 29.1352 30.587 28.725 29.8044 28.5491L29.4781 28.4757C28.3677 28.2261 27.707 27.0817 28.046 25.9952L28.1456 25.676C28.3846 24.9102 28.3846 24.0898 28.1456 23.324L28.046 23.0048C27.707 21.9183 28.3677 20.7739 29.4781 20.5243L29.8044 20.4509C30.587 20.275 31.2975 19.8648 31.8412 19.275L32.0679 19.0291C32.8393 18.1922 34.1607 18.1922 34.9321 19.0291L35.1588 19.275C35.7025 19.8648 36.413 20.275 37.1956 20.4509L37.5219 20.5243C38.6323 20.7739 39.293 21.9183 38.954 23.0048L38.8544 23.324C38.6154 24.0898 38.6154 24.9102 38.8544 25.676L38.954 25.9952C39.293 27.0817 38.6323 28.2261 37.5219 28.4757L37.1956 28.5491C36.413 28.725 35.7025 29.1352 35.1588 29.725L34.9321 29.9709C34.1607 30.8078 32.8393 30.8078 32.0679 29.9709Z" stroke="#212121" stroke-width="2"/>
<path d="M32 23L35 26" stroke="#212121" stroke-width="2" stroke-linecap="round"/>
<path d="M35 23L32 26" stroke="#212121" stroke-width="2" stroke-linecap="round"/>
</svg>
