<svg width="44" height="44" viewBox="0 0 44 44" fill="none" xmlns="http://www.w3.org/2000/svg">
<circle cx="22" cy="22" r="21" fill="url(#paint0_linear)" stroke="white" stroke-width="2"/>
<path d="M28.952 20.1543C28.9769 17.053 26.4182 14.2095 23.2483 13.8166L23.0404 13.7854C22.8815 13.7539 22.7202 13.7358 22.5582 13.7314C21.9076 13.7314 21.735 14.2012 21.6893 14.4818C21.6634 14.5983 21.6611 14.7189 21.6825 14.8363C21.7039 14.9538 21.7486 15.0657 21.814 15.1656C22.0302 15.467 22.4085 15.519 22.712 15.5647C22.8014 15.5772 22.8866 15.5876 22.9552 15.6063C25.805 16.2611 26.7653 17.2941 27.233 20.2104C27.2454 20.2832 27.2496 20.3705 27.2538 20.464C27.2745 20.8111 27.3182 21.5366 28.0748 21.5366C28.1372 21.5366 28.2037 21.5324 28.2744 21.5199C28.979 21.4098 28.9561 20.7467 28.9457 20.4287C28.9405 20.3518 28.9405 20.2748 28.9457 20.1979C28.948 20.1842 28.9494 20.1703 28.9499 20.1564L28.952 20.1543Z" fill="white"/>
<path d="M22.3753 12.7543C22.4585 12.7606 22.5416 12.7668 22.606 12.7772C27.2829 13.5214 29.4363 15.8078 30.0329 20.6759C30.0433 20.7591 30.0433 20.8588 30.0454 20.9669C30.0516 21.3473 30.0641 22.1372 30.8872 22.1538H30.9122C31.0252 22.1598 31.1382 22.1416 31.2436 22.1004C31.349 22.0592 31.4443 21.9959 31.5233 21.9148C31.7789 21.6383 31.7623 21.2288 31.7478 20.8963C31.7436 20.8173 31.7394 20.7404 31.7415 20.6738C31.7997 15.6956 27.6259 11.1808 22.8077 11.0146L22.7495 11.0166C22.7309 11.0194 22.7121 11.0208 22.6933 11.0208C22.6455 11.0208 22.5852 11.0166 22.5229 11.0125C22.44 11.0049 22.3567 11.0007 22.2735 11C21.5065 11 21.3609 11.5612 21.3422 11.898C21.3007 12.6733 22.0261 12.7294 22.3753 12.7543ZM29.8063 26.9658C29.7062 26.8874 29.6072 26.8077 29.5091 26.7268C28.9978 26.3027 28.4532 25.9119 27.9294 25.5336C27.8197 25.4548 27.7103 25.3758 27.6009 25.2967C26.9275 24.8103 26.3226 24.5712 25.751 24.5712C24.9819 24.5712 24.3105 25.0119 23.7555 25.8787C23.5102 26.2611 23.2109 26.4482 22.8451 26.4482C22.5897 26.4391 22.3393 26.3746 22.1113 26.2591C19.9392 25.2406 18.3865 23.6816 17.4989 21.6238C17.0707 20.626 17.2079 19.9775 17.9645 19.4475C18.3927 19.1481 19.1909 18.589 19.1348 17.5185C19.0724 16.3025 16.4721 12.6442 15.3766 12.2285C14.9093 12.0521 14.3941 12.0506 13.9258 12.2243C12.6682 12.6608 11.764 13.4299 11.313 14.4422C10.8764 15.4233 10.8972 16.5728 11.3712 17.77C12.7368 21.233 14.6554 24.2511 17.079 26.7413C19.4486 29.1795 22.3628 31.175 25.7385 32.6757C26.042 32.8108 26.3621 32.8836 26.5949 32.9376L26.7924 32.9875C26.8194 32.9953 26.8474 32.9995 26.8755 33H26.9025C28.4906 33 30.3967 31.5034 30.9828 29.7948C31.4962 28.2982 30.5588 27.5603 29.8063 26.9679V26.9658ZM23.0779 16.7099C22.8077 16.7162 22.2402 16.7307 22.0407 17.3252C21.9492 17.6037 21.9596 17.8449 22.0739 18.0423C22.2423 18.3333 22.5665 18.4227 22.8596 18.4705C23.9239 18.6472 24.4726 19.2562 24.5807 20.3828C24.6327 20.9108 24.9756 21.2766 25.4163 21.2766C25.4496 21.2773 25.483 21.276 25.5161 21.2725C26.0461 21.206 26.3018 20.8048 26.2789 20.0773C26.2873 19.3165 25.9027 18.456 25.2479 17.77C24.5911 17.0799 23.7992 16.6912 23.0779 16.7099Z" fill="white"/>
<defs>
<linearGradient id="paint0_linear" x1="14.0556" y1="3.97222" x2="31.4722" y2="39.4167" gradientUnits="userSpaceOnUse">
<stop stop-color="#7B519C"/>
<stop offset="1" stop-color="#683D8C"/>
</linearGradient>
</defs>
</svg>
